<svg width="20" height="20" viewBox="0 0 20 20" fill="none" xmlns="http://www.w3.org/2000/svg">
<path d="M19.6555 9.50892C20.1148 9.67144 20.1148 10.3286 19.6555 10.4911C17.5146 11.2401 14.6977 11.5534 13.122 13.122C11.5534 14.6906 11.2471 17.5146 10.4911 19.6555C10.3286 20.1148 9.67144 20.1148 9.50892 19.6555C8.75994 17.5146 8.44663 14.6906 6.87093 13.122C5.30231 11.5534 2.48543 11.2471 0.344462 10.4911C-0.114821 10.3286 -0.114821 9.67144 0.344462 9.50892C2.48543 8.75994 5.30231 8.44663 6.878 6.878C8.44663 5.30937 8.75287 2.48543 9.50892 0.344462C9.67144 -0.114821 10.3286 -0.114821 10.4911 0.344462C11.2401 2.48543 11.5534 5.30231 13.122 6.87094C14.6906 8.43956 17.5146 8.75287 19.6555 9.50892Z" fill="#A8A8A7"/>
</svg>
